<svg width="178" height="60" viewBox="0 0 178 60" fill="none" xmlns="http://www.w3.org/2000/svg">
<path d="M23.582 42H3.38672V13.875H23.582V17.4688H11.1406V26.1602H20.75V29.7344H11.1406V38.4062H23.582V42ZM53.2695 20.8477L49.9297 22.2539C49.6693 21.4076 49.3177 20.6328 48.875 19.9297C48.4453 19.2266 47.9245 18.6276 47.3125 18.1328C46.7135 17.625 46.0299 17.2344 45.2617 16.9609C44.4935 16.6745 43.6536 16.5312 42.7422 16.5312C41.7656 16.5312 40.8672 16.694 40.0469 17.0195C39.2396 17.332 38.5104 17.7682 37.8594 18.3281C37.2214 18.888 36.6615 19.5391 36.1797 20.2812C35.6979 21.0234 35.2943 21.8177 34.9688 22.6641C34.6432 23.4974 34.4023 24.3633 34.2461 25.2617C34.0898 26.1602 34.0117 27.0391 34.0117 27.8984C34.0117 29.2656 34.168 30.6263 34.4805 31.9805C34.806 33.3346 35.3138 34.5521 36.0039 35.6328C36.707 36.7135 37.612 37.5924 38.7188 38.2695C39.8255 38.9336 41.1667 39.2656 42.7422 39.2656C43.5755 39.2656 44.3633 39.1289 45.1055 38.8555C45.8477 38.569 46.5182 38.1849 47.1172 37.7031C47.7292 37.2083 48.263 36.6289 48.7188 35.9648C49.1745 35.3008 49.5391 34.5846 49.8125 33.8164L53.1914 35.1641C52.6966 36.401 52.0195 37.4883 51.1602 38.4258C50.3008 39.3503 49.3177 40.1185 48.2109 40.7305C47.1172 41.3424 45.9388 41.7982 44.6758 42.0977C43.4258 42.4102 42.1628 42.5664 40.8867 42.5664C39.5065 42.5664 38.1784 42.3971 36.9023 42.0586C35.6393 41.7201 34.4609 41.2383 33.3672 40.6133C32.2734 39.9883 31.2773 39.2331 30.3789 38.3477C29.4935 37.4622 28.7318 36.4792 28.0938 35.3984C27.4688 34.3177 26.9805 33.1458 26.6289 31.8828C26.2904 30.6068 26.1211 29.2786 26.1211 27.8984C26.1211 26.5182 26.2904 25.1966 26.6289 23.9336C26.9805 22.6576 27.4688 21.4792 28.0938 20.3984C28.7318 19.3047 29.4935 18.3151 30.3789 17.4297C31.2773 16.5443 32.2734 15.7891 33.3672 15.1641C34.4609 14.5391 35.6393 14.0573 36.9023 13.7188C38.1784 13.3802 39.5065 13.2109 40.8867 13.2109C42.2148 13.2109 43.5104 13.3672 44.7734 13.6797C46.0495 13.9922 47.2344 14.4674 48.3281 15.1055C49.4219 15.7305 50.3919 16.5247 51.2383 17.4883C52.0977 18.4388 52.7747 19.5586 53.2695 20.8477ZM87.1562 27.8984C87.1562 30.1641 86.7656 32.2083 85.9844 34.0312C85.2031 35.8411 84.1224 37.3776 82.7422 38.6406C81.362 39.9036 79.7279 40.8737 77.8398 41.5508C75.9518 42.2279 73.9076 42.5664 71.707 42.5664C69.5065 42.5664 67.4622 42.2279 65.5742 41.5508C63.6862 40.8737 62.0521 39.9036 60.6719 38.6406C59.2917 37.3776 58.2109 35.8411 57.4297 34.0312C56.6484 32.2083 56.2578 30.1641 56.2578 27.8984C56.2578 25.5938 56.6419 23.5365 57.4102 21.7266C58.1914 19.9036 59.2656 18.3672 60.6328 17.1172C62.013 15.8542 63.6471 14.8906 65.5352 14.2266C67.4232 13.5495 69.4805 13.2109 71.707 13.2109C73.9336 13.2109 75.9909 13.5495 77.8789 14.2266C79.7669 14.8906 81.3945 15.8542 82.7617 17.1172C84.1419 18.3672 85.2161 19.9036 85.9844 21.7266C86.7656 23.5365 87.1562 25.5938 87.1562 27.8984ZM79.2656 27.8984C79.2656 27.0391 79.2266 26.1602 79.1484 25.2617C79.0703 24.3633 78.9271 23.4909 78.7188 22.6445C78.5104 21.7982 78.224 21.0039 77.8594 20.2617C77.5078 19.5195 77.0521 18.875 76.4922 18.3281C75.9323 17.7682 75.2552 17.332 74.4609 17.0195C73.6797 16.694 72.7617 16.5312 71.707 16.5312C70.6393 16.5312 69.7083 16.694 68.9141 17.0195C68.1198 17.332 67.4427 17.7617 66.8828 18.3086C66.3229 18.8555 65.8672 19.5 65.5156 20.2422C65.1641 20.9844 64.8841 21.7786 64.6758 22.625C64.4805 23.4583 64.3438 24.3307 64.2656 25.2422C64.1875 26.1406 64.1484 27.026 64.1484 27.8984C64.1484 28.7578 64.1875 29.6367 64.2656 30.5352C64.3438 31.4336 64.487 32.306 64.6953 33.1523C64.9036 33.9857 65.1836 34.7734 65.5352 35.5156C65.8997 36.2578 66.362 36.9089 66.9219 37.4688C67.4818 38.0156 68.1523 38.4518 68.9336 38.7773C69.7279 39.1029 70.6523 39.2656 71.707 39.2656C72.7357 39.2656 73.6341 39.1029 74.4023 38.7773C75.1706 38.4388 75.8346 37.9896 76.3945 37.4297C76.9544 36.8568 77.4167 36.1992 77.7812 35.457C78.1589 34.7018 78.4518 33.9076 78.6602 33.0742C78.8815 32.2279 79.0378 31.362 79.1289 30.4766C79.2201 29.5911 79.2656 28.7318 79.2656 27.8984Z" fill="white"/>
<path opacity="0.6" d="M121.23 33.3633C121.23 34.1576 121.1 34.8997 120.84 35.5898C120.579 36.2799 120.221 36.9115 119.766 37.4844C119.31 38.0443 118.776 38.5456 118.164 38.9883C117.565 39.431 116.914 39.8021 116.211 40.1016C115.521 40.401 114.805 40.6289 114.062 40.7852C113.32 40.9284 112.591 41 111.875 41H95.332V12.875H110.449C111.113 12.875 111.81 12.9271 112.539 13.0312C113.268 13.1224 113.978 13.2721 114.668 13.4805C115.371 13.6888 116.035 13.9622 116.66 14.3008C117.298 14.6393 117.852 15.056 118.32 15.5508C118.802 16.0326 119.18 16.5924 119.453 17.2305C119.74 17.8685 119.883 18.5977 119.883 19.418C119.883 20.1992 119.727 20.9089 119.414 21.5469C119.102 22.1849 118.678 22.7578 118.145 23.2656C117.624 23.7604 117.018 24.2031 116.328 24.5938C115.651 24.9714 114.935 25.3034 114.18 25.5898C115.13 25.8503 116.029 26.1953 116.875 26.625C117.734 27.0547 118.483 27.582 119.121 28.207C119.772 28.832 120.286 29.5742 120.664 30.4336C121.042 31.2799 121.23 32.2565 121.23 33.3633ZM112.012 20.1016C112.012 18.513 111.589 17.3542 110.742 16.625C109.909 15.8958 108.717 15.5312 107.168 15.5312H103.086V24.6523H106.504C107.207 24.6523 107.891 24.5677 108.555 24.3984C109.219 24.2161 109.805 23.9427 110.312 23.5781C110.833 23.2005 111.243 22.7253 111.543 22.1523C111.855 21.5794 112.012 20.8958 112.012 20.1016ZM113.379 32.875C113.379 32.1068 113.281 31.3906 113.086 30.7266C112.891 30.0495 112.591 29.4701 112.188 28.9883C111.784 28.4935 111.276 28.1094 110.664 27.8359C110.065 27.5495 109.355 27.4062 108.535 27.4062H103.086V38.2656H107.852C108.646 38.2656 109.382 38.1354 110.059 37.875C110.736 37.6146 111.322 37.25 111.816 36.7812C112.311 36.3125 112.695 35.7461 112.969 35.082C113.242 34.418 113.379 33.6823 113.379 32.875ZM132.148 12.9922C132.148 13.487 132.051 13.9557 131.855 14.3984C131.673 14.8411 131.419 15.2253 131.094 15.5508C130.768 15.8763 130.384 16.1367 129.941 16.332C129.499 16.5143 129.03 16.6055 128.535 16.6055C128.04 16.6055 127.572 16.5143 127.129 16.332C126.699 16.1367 126.322 15.8763 125.996 15.5508C125.671 15.2253 125.41 14.8411 125.215 14.3984C125.033 13.9557 124.941 13.487 124.941 12.9922C124.941 12.4974 125.033 12.0352 125.215 11.6055C125.41 11.1628 125.671 10.7786 125.996 10.4531C126.322 10.1276 126.699 9.8737 127.129 9.69141C127.572 9.49609 128.04 9.39844 128.535 9.39844C129.03 9.39844 129.499 9.49609 129.941 9.69141C130.384 9.8737 130.768 10.1276 131.094 10.4531C131.419 10.7786 131.673 11.1628 131.855 11.6055C132.051 12.0352 132.148 12.4974 132.148 12.9922ZM131.855 41H125.234V18.4609H131.855V41ZM145.898 41H139.277V21.0586H135.176V18.4414H139.277V10.1406H145.898V18.4414H152.734V21.0586H145.898V41ZM160.215 30.2969C161.022 30.4792 161.829 30.6224 162.637 30.7266C163.444 30.8307 164.258 30.8828 165.078 30.8828C165.938 30.8828 166.732 30.8047 167.461 30.6484C168.203 30.4792 168.841 30.2057 169.375 29.8281C169.922 29.4375 170.352 28.9232 170.664 28.2852C170.977 27.6471 171.133 26.8529 171.133 25.9023C171.133 25.1341 171.029 24.431 170.82 23.793C170.612 23.1549 170.299 22.6081 169.883 22.1523C169.479 21.6966 168.978 21.3451 168.379 21.0977C167.78 20.8372 167.083 20.707 166.289 20.707C165.547 20.707 164.876 20.8438 164.277 21.1172C163.691 21.3906 163.171 21.7617 162.715 22.2305C162.272 22.6862 161.888 23.2201 161.562 23.832C161.25 24.444 160.99 25.082 160.781 25.7461C160.573 26.4102 160.423 27.0807 160.332 27.7578C160.241 28.4349 160.195 29.0729 160.195 29.6719C160.195 29.776 160.195 29.8802 160.195 29.9844C160.195 30.0885 160.202 30.1927 160.215 30.2969ZM176.484 25.8438C176.484 26.7682 176.335 27.5951 176.035 28.3242C175.736 29.0404 175.326 29.6719 174.805 30.2188C174.297 30.7656 173.704 31.2279 173.027 31.6055C172.35 31.9831 171.628 32.2956 170.859 32.543C170.091 32.7773 169.297 32.9466 168.477 33.0508C167.669 33.1549 166.882 33.207 166.113 33.207C165.137 33.207 164.173 33.1419 163.223 33.0117C162.272 32.8685 161.335 32.6471 160.41 32.3477C160.553 33.207 160.781 34.0273 161.094 34.8086C161.406 35.5768 161.823 36.2539 162.344 36.8398C162.865 37.4128 163.503 37.8685 164.258 38.207C165.026 38.5456 165.931 38.7148 166.973 38.7148C167.663 38.7148 168.32 38.6107 168.945 38.4023C169.57 38.194 170.143 37.901 170.664 37.5234C171.185 37.1458 171.641 36.6966 172.031 36.1758C172.435 35.6549 172.76 35.0755 173.008 34.4375L175.859 35.4922C175.43 36.5208 174.837 37.4128 174.082 38.168C173.34 38.9102 172.493 39.5286 171.543 40.0234C170.605 40.5052 169.603 40.8633 168.535 41.0977C167.48 41.332 166.432 41.4492 165.391 41.4492C163.672 41.4492 162.083 41.1628 160.625 40.5898C159.167 40.0039 157.91 39.1901 156.855 38.1484C155.801 37.1068 154.974 35.8633 154.375 34.418C153.776 32.9727 153.477 31.3906 153.477 29.6719C153.477 27.9531 153.776 26.3711 154.375 24.9258C154.974 23.4805 155.801 22.237 156.855 21.1953C157.91 20.1536 159.167 19.3464 160.625 18.7734C162.083 18.1875 163.672 17.8945 165.391 17.8945C166.224 17.8945 167.077 17.9531 167.949 18.0703C168.822 18.1875 169.668 18.3763 170.488 18.6367C171.309 18.8841 172.083 19.2096 172.812 19.6133C173.542 20.0169 174.173 20.5182 174.707 21.1172C175.254 21.7031 175.684 22.3867 175.996 23.168C176.322 23.9492 176.484 24.8411 176.484 25.8438Z" fill="white"/>
</svg>
